#usda 1.0
(
    defaultPrim = "World"
    metersPerUnit = 1
    upAxis = "Y"
)

def Xform "World"
{
    def "materials"
    {
        def Material "red"
        {
            token outputs:surface.connect = </World/materials/red/PreviewSurface.outputs:surface>

            def Shader "PreviewSurface"
            {
                uniform token info:id = "UsdPreviewSurface"
                color3f inputs:diffuseColor = (0.92, 0.12, 0.08)
                float inputs:metallic = 0
                float inputs:roughness = 0.46
                token outputs:surface
            }
        }

        def Material "green"
        {
            token outputs:surface.connect = </World/materials/green/PreviewSurface.outputs:surface>

            def Shader "PreviewSurface"
            {
                uniform token info:id = "UsdPreviewSurface"
                color3f inputs:diffuseColor = (0.12, 0.72, 0.24)
                float inputs:metallic = 0
                float inputs:roughness = 0.46
                token outputs:surface
            }
        }

        def Material "blue"
        {
            token outputs:surface.connect = </World/materials/blue/PreviewSurface.outputs:surface>

            def Shader "PreviewSurface"
            {
                uniform token info:id = "UsdPreviewSurface"
                color3f inputs:diffuseColor = (0.1, 0.28, 0.92)
                float inputs:metallic = 0
                float inputs:roughness = 0.46
                token outputs:surface
            }
        }

        def Material "yellow"
        {
            token outputs:surface.connect = </World/materials/yellow/PreviewSurface.outputs:surface>

            def Shader "PreviewSurface"
            {
                uniform token info:id = "UsdPreviewSurface"
                color3f inputs:diffuseColor = (0.95, 0.74, 0.12)
                float inputs:metallic = 0
                float inputs:roughness = 0.46
                token outputs:surface
            }
        }

        def Material "violet"
        {
            token outputs:surface.connect = </World/materials/violet/PreviewSurface.outputs:surface>

            def Shader "PreviewSurface"
            {
                uniform token info:id = "UsdPreviewSurface"
                color3f inputs:diffuseColor = (0.62, 0.22, 0.86)
                float inputs:metallic = 0
                float inputs:roughness = 0.46
                token outputs:surface
            }
        }

        def Material "matte_grey"
        {
            token outputs:surface.connect = </World/materials/matte_grey/PreviewSurface.outputs:surface>

            def Shader "PreviewSurface"
            {
                uniform token info:id = "UsdPreviewSurface"
                color3f inputs:diffuseColor = (0.45, 0.47, 0.5)
                float inputs:metallic = 0
                float inputs:roughness = 0.46
                token outputs:surface
            }
        }
    }

    def Mesh "ground" (
        prepend apiSchemas = ["MaterialBindingAPI"]
    )
    {
        int[] faceVertexCounts = [4]
        int[] faceVertexIndices = [0, 1, 2, 3]
        rel material:binding = </World/materials/matte_grey>
        point3f[] points = [(-5.5, -0.52, -3.8), (5.5, -0.52, -3.8), (5.5, -0.52, 3.8), (-5.5, -0.52, 3.8)]
        uniform token subdivisionScheme = "none"
    }

    def Scope "instances"
    {
        def Xform "sphere_00" (
            prepend apiSchemas = ["MaterialBindingAPI"]
            instanceable = true
            prepend references = </_Prototype/Sphere>
        )
        {
            rel material:binding = </World/materials/red>
            double3 xformOp:translate = (-3.75, 0, -1.875)
            uniform token[] xformOpOrder = ["xformOp:translate"]
        }

        def Xform "sphere_01" (
            prepend apiSchemas = ["MaterialBindingAPI"]
            instanceable = true
            prepend references = </_Prototype/Sphere>
        )
        {
            rel material:binding = </World/materials/green>
            double3 xformOp:translate = (-2.5, 0, -1.875)
            uniform token[] xformOpOrder = ["xformOp:translate"]
        }

        def Xform "sphere_02" (
            prepend apiSchemas = ["MaterialBindingAPI"]
            instanceable = true
            prepend references = </_Prototype/Sphere>
        )
        {
            rel material:binding = </World/materials/blue>
            double3 xformOp:translate = (-1.25, 0, -1.875)
            uniform token[] xformOpOrder = ["xformOp:translate"]
        }

        def Xform "sphere_03" (
            prepend apiSchemas = ["MaterialBindingAPI"]
            instanceable = true
            prepend references = </_Prototype/Sphere>
        )
        {
            rel material:binding = </World/materials/yellow>
            double3 xformOp:translate = (0, 0, -1.875)
            uniform token[] xformOpOrder = ["xformOp:translate"]
        }

        def Xform "sphere_04" (
            prepend apiSchemas = ["MaterialBindingAPI"]
            instanceable = true
            prepend references = </_Prototype/Sphere>
        )
        {
            rel material:binding = </World/materials/violet>
            double3 xformOp:translate = (1.25, 0, -1.875)
            uniform token[] xformOpOrder = ["xformOp:translate"]
        }

        def Xform "sphere_05" (
            prepend apiSchemas = ["MaterialBindingAPI"]
            instanceable = true
            prepend references = </_Prototype/Sphere>
        )
        {
            rel material:binding = </World/materials/red>
            double3 xformOp:translate = (2.5, 0, -1.875)
            uniform token[] xformOpOrder = ["xformOp:translate"]
        }

        def Xform "sphere_06" (
            prepend apiSchemas = ["MaterialBindingAPI"]
            instanceable = true
            prepend references = </_Prototype/Sphere>
        )
        {
            rel material:binding = </World/materials/green>
            double3 xformOp:translate = (3.75, 0, -1.875)
            uniform token[] xformOpOrder = ["xformOp:translate"]
        }

        def Xform "sphere_07" (
            prepend apiSchemas = ["MaterialBindingAPI"]
            instanceable = true
            prepend references = </_Prototype/Sphere>
        )
        {
            rel material:binding = </World/materials/blue>
            double3 xformOp:translate = (-3.75, 0, -0.625)
            uniform token[] xformOpOrder = ["xformOp:translate"]
        }

        def Xform "sphere_08" (
            prepend apiSchemas = ["MaterialBindingAPI"]
            instanceable = true
            prepend references = </_Prototype/Sphere>
        )
        {
            rel material:binding = </World/materials/yellow>
            double3 xformOp:translate = (-2.5, 0, -0.625)
            uniform token[] xformOpOrder = ["xformOp:translate"]
        }

        def Xform "sphere_09" (
            prepend apiSchemas = ["MaterialBindingAPI"]
            instanceable = true
            prepend references = </_Prototype/Sphere>
        )
        {
            rel material:binding = </World/materials/violet>
            double3 xformOp:translate = (-1.25, 0, -0.625)
            uniform token[] xformOpOrder = ["xformOp:translate"]
        }

        def Xform "sphere_10" (
            prepend apiSchemas = ["MaterialBindingAPI"]
            instanceable = true
            prepend references = </_Prototype/Sphere>
        )
        {
            rel material:binding = </World/materials/red>
            double3 xformOp:translate = (0, 0, -0.625)
            uniform token[] xformOpOrder = ["xformOp:translate"]
        }

        def Xform "sphere_11" (
            prepend apiSchemas = ["MaterialBindingAPI"]
            instanceable = true
            prepend references = </_Prototype/Sphere>
        )
        {
            rel material:binding = </World/materials/green>
            double3 xformOp:translate = (1.25, 0, -0.625)
            uniform token[] xformOpOrder = ["xformOp:translate"]
        }

        def Xform "sphere_12" (
            prepend apiSchemas = ["MaterialBindingAPI"]
            instanceable = true
            prepend references = </_Prototype/Sphere>
        )
        {
            rel material:binding = </World/materials/blue>
            double3 xformOp:translate = (2.5, 0, -0.625)
            uniform token[] xformOpOrder = ["xformOp:translate"]
        }

        def Xform "sphere_13" (
            prepend apiSchemas = ["MaterialBindingAPI"]
            instanceable = true
            prepend references = </_Prototype/Sphere>
        )
        {
            rel material:binding = </World/materials/yellow>
            double3 xformOp:translate = (3.75, 0, -0.625)
            uniform token[] xformOpOrder = ["xformOp:translate"]
        }

        def Xform "sphere_14" (
            prepend apiSchemas = ["MaterialBindingAPI"]
            instanceable = true
            prepend references = </_Prototype/Sphere>
        )
        {
            rel material:binding = </World/materials/violet>
            double3 xformOp:translate = (-3.75, 0, 0.625)
            uniform token[] xformOpOrder = ["xformOp:translate"]
        }

        def Xform "sphere_15" (
            prepend apiSchemas = ["MaterialBindingAPI"]
            instanceable = true
            prepend references = </_Prototype/Sphere>
        )
        {
            rel material:binding = </World/materials/red>
            double3 xformOp:translate = (-2.5, 0, 0.625)
            uniform token[] xformOpOrder = ["xformOp:translate"]
        }

        def Xform "sphere_16" (
            prepend apiSchemas = ["MaterialBindingAPI"]
            instanceable = true
            prepend references = </_Prototype/Sphere>
        )
        {
            rel material:binding = </World/materials/green>
            double3 xformOp:translate = (-1.25, 0, 0.625)
            uniform token[] xformOpOrder = ["xformOp:translate"]
        }

        def Xform "sphere_17" (
            prepend apiSchemas = ["MaterialBindingAPI"]
            instanceable = true
            prepend references = </_Prototype/Sphere>
        )
        {
            rel material:binding = </World/materials/blue>
            double3 xformOp:translate = (0, 0, 0.625)
            uniform token[] xformOpOrder = ["xformOp:translate"]
        }

        def Xform "sphere_18" (
            prepend apiSchemas = ["MaterialBindingAPI"]
            instanceable = true
            prepend references = </_Prototype/Sphere>
        )
        {
            rel material:binding = </World/materials/yellow>
            double3 xformOp:translate = (1.25, 0, 0.625)
            uniform token[] xformOpOrder = ["xformOp:translate"]
        }

        def Xform "sphere_19" (
            prepend apiSchemas = ["MaterialBindingAPI"]
            instanceable = true
            prepend references = </_Prototype/Sphere>
        )
        {
            rel material:binding = </World/materials/violet>
            double3 xformOp:translate = (2.5, 0, 0.625)
            uniform token[] xformOpOrder = ["xformOp:translate"]
        }

        def Xform "sphere_20" (
            prepend apiSchemas = ["MaterialBindingAPI"]
            instanceable = true
            prepend references = </_Prototype/Sphere>
        )
        {
            rel material:binding = </World/materials/red>
            double3 xformOp:translate = (3.75, 0, 0.625)
            uniform token[] xformOpOrder = ["xformOp:translate"]
        }

        def Xform "sphere_21" (
            prepend apiSchemas = ["MaterialBindingAPI"]
            instanceable = true
            prepend references = </_Prototype/Sphere>
        )
        {
            rel material:binding = </World/materials/green>
            double3 xformOp:translate = (-3.75, 0, 1.875)
            uniform token[] xformOpOrder = ["xformOp:translate"]
        }

        def Xform "sphere_22" (
            prepend apiSchemas = ["MaterialBindingAPI"]
            instanceable = true
            prepend references = </_Prototype/Sphere>
        )
        {
            rel material:binding = </World/materials/blue>
            double3 xformOp:translate = (-2.5, 0, 1.875)
            uniform token[] xformOpOrder = ["xformOp:translate"]
        }

        def Xform "sphere_23" (
            prepend apiSchemas = ["MaterialBindingAPI"]
            instanceable = true
            prepend references = </_Prototype/Sphere>
        )
        {
            rel material:binding = </World/materials/yellow>
            double3 xformOp:translate = (-1.25, 0, 1.875)
            uniform token[] xformOpOrder = ["xformOp:translate"]
        }

        def Xform "sphere_24" (
            prepend apiSchemas = ["MaterialBindingAPI"]
            instanceable = true
            prepend references = </_Prototype/Sphere>
        )
        {
            rel material:binding = </World/materials/violet>
            double3 xformOp:translate = (0, 0, 1.875)
            uniform token[] xformOpOrder = ["xformOp:translate"]
        }

        def Xform "sphere_25" (
            prepend apiSchemas = ["MaterialBindingAPI"]
            instanceable = true
            prepend references = </_Prototype/Sphere>
        )
        {
            rel material:binding = </World/materials/red>
            double3 xformOp:translate = (1.25, 0, 1.875)
            uniform token[] xformOpOrder = ["xformOp:translate"]
        }

        def Xform "sphere_26" (
            prepend apiSchemas = ["MaterialBindingAPI"]
            instanceable = true
            prepend references = </_Prototype/Sphere>
        )
        {
            rel material:binding = </World/materials/green>
            double3 xformOp:translate = (2.5, 0, 1.875)
            uniform token[] xformOpOrder = ["xformOp:translate"]
        }

        def Xform "sphere_27" (
            prepend apiSchemas = ["MaterialBindingAPI"]
            instanceable = true
            prepend references = </_Prototype/Sphere>
        )
        {
            rel material:binding = </World/materials/blue>
            double3 xformOp:translate = (3.75, 0, 1.875)
            uniform token[] xformOpOrder = ["xformOp:translate"]
        }
    }

    def Camera "camera"
    {
        float focalLength = 35
        float verticalAperture = 20.955
        float3 xformOp:rotateXYZ = (-21, 0, 0)
        double3 xformOp:translate = (0, 3.2, 7.8)
        uniform token[] xformOpOrder = ["xformOp:translate", "xformOp:rotateXYZ"]
    }

    def DomeLight "domeLight"
    {
        color3f inputs:color = (0.72, 0.8, 1)
        float inputs:intensity = 0.35
    }

    def RectLight "keyLight"
    {
        float inputs:height = 3
        float inputs:intensity = 320
        float inputs:width = 4
        float3 xformOp:rotateXYZ = (-55, -18, 0)
        double3 xformOp:translate = (-2.2, 4, 3.5)
        uniform token[] xformOpOrder = ["xformOp:translate", "xformOp:rotateXYZ"]
    }
}

def "_Prototype"
{
    class Xform "Sphere"
    {
        def Mesh "mesh"
        {
            int[] faceVertexCounts = [4, 4, 4, 4, 4, 4, 4, 4, 4, 4, 4, 4, 4, 4, 4, 4, 4, 4, 4, 4, 4, 4, 4, 4, 4, 4, 4, 4, 4, 4, 4, 4, 4, 4, 4, 4, 4, 4, 4, 4, 4, 4, 4, 4, 4, 4, 4, 4, 4, 4, 4, 4, 4, 4, 4, 4, 4, 4, 4, 4, 4, 4, 4, 4, 4, 4, 4, 4, 4, 4, 4, 4, 4, 4, 4, 4, 4, 4, 4, 4, 4, 4, 4, 4, 4, 4, 4, 4, 4, 4, 4, 4, 4, 4, 4, 4, 4, 4, 4, 4, 4, 4, 4, 4, 4, 4, 4, 4, 4, 4, 4, 4, 4, 4, 4, 4, 4, 4, 4, 4, 4, 4, 4, 4, 4, 4, 4, 4, 4, 4, 4, 4, 4, 4, 4, 4, 4, 4, 4, 4, 4, 4, 4, 4, 4, 4, 4, 4, 4, 4, 4, 4, 4, 4, 4, 4, 4, 4, 4, 4, 4, 4, 4, 4, 4, 4, 4, 4, 4, 4, 4, 4, 4, 4, 4, 4, 4, 4, 4, 4, 4, 4, 4, 4, 4, 4, 4, 4, 4, 4, 4, 4, 4, 4, 4, 4, 4, 4, 4, 4]
            int[] faceVertexIndices = [0, 1, 21, 20, 1, 2, 22, 21, 2, 3, 23, 22, 3, 4, 24, 23, 4, 5, 25, 24, 5, 6, 26, 25, 6, 7, 27, 26, 7, 8, 28, 27, 8, 9, 29, 28, 9, 10, 30, 29, 10, 11, 31, 30, 11, 12, 32, 31, 12, 13, 33, 32, 13, 14, 34, 33, 14, 15, 35, 34, 15, 16, 36, 35, 16, 17, 37, 36, 17, 18, 38, 37, 18, 19, 39, 38, 19, 0, 20, 39, 20, 21, 41, 40, 21, 22, 42, 41, 22, 23, 43, 42, 23, 24, 44, 43, 24, 25, 45, 44, 25, 26, 46, 45, 26, 27, 47, 46, 27, 28, 48, 47, 28, 29, 49, 48, 29, 30, 50, 49, 30, 31, 51, 50, 31, 32, 52, 51, 32, 33, 53, 52, 33, 34, 54, 53, 34, 35, 55, 54, 35, 36, 56, 55, 36, 37, 57, 56, 37, 38, 58, 57, 38, 39, 59, 58, 39, 20, 40, 59, 40, 41, 61, 60, 41, 42, 62, 61, 42, 43, 63, 62, 43, 44, 64, 63, 44, 45, 65, 64, 45, 46, 66, 65, 46, 47, 67, 66, 47, 48, 68, 67, 48, 49, 69, 68, 49, 50, 70, 69, 50, 51, 71, 70, 51, 52, 72, 71, 52, 53, 73, 72, 53, 54, 74, 73, 54, 55, 75, 74, 55, 56, 76, 75, 56, 57, 77, 76, 57, 58, 78, 77, 58, 59, 79, 78, 59, 40, 60, 79, 60, 61, 81, 80, 61, 62, 82, 81, 62, 63, 83, 82, 63, 64, 84, 83, 64, 65, 85, 84, 65, 66, 86, 85, 66, 67, 87, 86, 67, 68, 88, 87, 68, 69, 89, 88, 69, 70, 90, 89, 70, 71, 91, 90, 71, 72, 92, 91, 72, 73, 93, 92, 73, 74, 94, 93, 74, 75, 95, 94, 75, 76, 96, 95, 76, 77, 97, 96, 77, 78, 98, 97, 78, 79, 99, 98, 79, 60, 80, 99, 80, 81, 101, 100, 81, 82, 102, 101, 82, 83, 103, 102, 83, 84, 104, 103, 84, 85, 105, 104, 85, 86, 106, 105, 86, 87, 107, 106, 87, 88, 108, 107, 88, 89, 109, 108, 89, 90, 110, 109, 90, 91, 111, 110, 91, 92, 112, 111, 92, 93, 113, 112, 93, 94, 114, 113, 94, 95, 115, 114, 95, 96, 116, 115, 96, 97, 117, 116, 97, 98, 118, 117, 98, 99, 119, 118, 99, 80, 100, 119, 100, 101, 121, 120, 101, 102, 122, 121, 102, 103, 123, 122, 103, 104, 124, 123, 104, 105, 125, 124, 105, 106, 126, 125, 106, 107, 127, 126, 107, 108, 128, 127, 108, 109, 129, 128, 109, 110, 130, 129, 110, 111, 131, 130, 111, 112, 132, 131, 112, 113, 133, 132, 113, 114, 134, 133, 114, 115, 135, 134, 115, 116, 136, 135, 116, 117, 137, 136, 117, 118, 138, 137, 118, 119, 139, 138, 119, 100, 120, 139, 120, 121, 141, 140, 121, 122, 142, 141, 122, 123, 143, 142, 123, 124, 144, 143, 124, 125, 145, 144, 125, 126, 146, 145, 126, 127, 147, 146, 127, 128, 148, 147, 128, 129, 149, 148, 129, 130, 150, 149, 130, 131, 151, 150, 131, 132, 152, 151, 132, 133, 153, 152, 133, 134, 154, 153, 134, 135, 155, 154, 135, 136, 156, 155, 136, 137, 157, 156, 137, 138, 158, 157, 138, 139, 159, 158, 139, 120, 140, 159, 140, 141, 161, 160, 141, 142, 162, 161, 142, 143, 163, 162, 143, 144, 164, 163, 144, 145, 165, 164, 145, 146, 166, 165, 146, 147, 167, 166, 147, 148, 168, 167, 148, 149, 169, 168, 149, 150, 170, 169, 150, 151, 171, 170, 151, 152, 172, 171, 152, 153, 173, 172, 153, 154, 174, 173, 154, 155, 175, 174, 155, 156, 176, 175, 156, 157, 177, 176, 157, 158, 178, 177, 158, 159, 179, 178, 159, 140, 160, 179, 160, 161, 181, 180, 161, 162, 182, 181, 162, 163, 183, 182, 163, 164, 184, 183, 164, 165, 185, 184, 165, 166, 186, 185, 166, 167, 187, 186, 167, 168, 188, 187, 168, 169, 189, 188, 169, 170, 190, 189, 170, 171, 191, 190, 171, 172, 192, 191, 172, 173, 193, 192, 173, 174, 194, 193, 174, 175, 195, 194, 175, 176, 196, 195, 176, 177, 197, 196, 177, 178, 198, 197, 178, 179, 199, 198, 179, 160, 180, 199, 180, 181, 201, 200, 181, 182, 202, 201, 182, 183, 203, 202, 183, 184, 204, 203, 184, 185, 205, 204, 185, 186, 206, 205, 186, 187, 207, 206, 187, 188, 208, 207, 188, 189, 209, 208, 189, 190, 210, 209, 190, 191, 211, 210, 191, 192, 212, 211, 192, 193, 213, 212, 193, 194, 214, 213, 194, 195, 215, 214, 195, 196, 216, 215, 196, 197, 217, 216, 197, 198, 218, 217, 198, 199, 219, 218, 199, 180, 200, 219]
            normal3f[] normals = [(0, 1, 0), (0, 1, 0), (0, 1, 0), (0, 1, 0), (0, 1, 0), (0, 1, 0), (-0, 1, 0), (-0, 1, 0), (-0, 1, 0), (-0, 1, 0), (-0, 1, 0), (-0, 1, -0), (-0, 1, -0), (-0, 1, -0), (-0, 1, -0), (-0, 1, -0), (0, 1, -0), (0, 1, -0), (0, 1, -0), (0, 1, -0), (0.309017, 0.95105654, 0), (0.29389262, 0.95105654, 0.095491506), (0.25, 0.95105654, 0.18163563), (0.18163563, 0.95105654, 0.25), (0.095491506, 0.95105654, 0.29389262), (1.8921834e-17, 0.95105654, 0.309017), (-0.095491506, 0.95105654, 0.29389262), (-0.18163563, 0.95105654, 0.25), (-0.25, 0.95105654, 0.18163563), (-0.29389262, 0.95105654, 0.095491506), (-0.309017, 0.95105654, 3.784367e-17), (-0.29389262, 0.95105654, -0.095491506), (-0.25, 0.95105654, -0.18163563), (-0.18163563, 0.95105654, -0.25), (-0.095491506, 0.95105654, -0.29389262), (-5.67655e-17, 0.95105654, -0.309017), (0.095491506, 0.95105654, -0.29389262), (0.18163563, 0.95105654, -0.25), (0.25, 0.95105654, -0.18163563), (0.29389262, 0.95105654, -0.095491506), (0.58778524, 0.809017, 0), (0.559017, 0.809017, 0.18163563), (0.47552827, 0.809017, 0.3454915), (0.3454915, 0.809017, 0.47552827), (0.18163563, 0.809017, 0.559017), (3.5991466e-17, 0.809017, 0.58778524), (-0.18163563, 0.809017, 0.559017), (-0.3454915, 0.809017, 0.47552827), (-0.47552827, 0.809017, 0.3454915), (-0.559017, 0.809017, 0.18163563), (-0.58778524, 0.809017, 7.198293e-17), (-0.559017, 0.809017, -0.18163563), (-0.47552827, 0.809017, -0.3454915), (-0.3454915, 0.809017, -0.47552827), (-0.18163563, 0.809017, -0.559017), (-1.079744e-16, 0.809017, -0.58778524), (0.18163563, 0.809017, -0.559017), (0.3454915, 0.809017, -0.47552827), (0.47552827, 0.809017, -0.3454915), (0.559017, 0.809017, -0.18163563), (0.809017, 0.58778524, 0), (0.76942086, 0.58778524, 0.25), (0.6545085, 0.58778524, 0.47552827), (0.47552827, 0.58778524, 0.6545085), (0.25, 0.58778524, 0.76942086), (4.9538004e-17, 0.58778524, 0.809017), (-0.25, 0.58778524, 0.76942086), (-0.47552827, 0.58778524, 0.6545085), (-0.6545085, 0.58778524, 0.47552827), (-0.76942086, 0.58778524, 0.25), (-0.809017, 0.58778524, 9.907601e-17), (-0.76942086, 0.58778524, -0.25), (-0.6545085, 0.58778524, -0.47552827), (-0.47552827, 0.58778524, -0.6545085), (-0.25, 0.58778524, -0.76942086), (-1.4861401e-16, 0.58778524, -0.809017), (0.25, 0.58778524, -0.76942086), (0.47552827, 0.58778524, -0.6545085), (0.6545085, 0.58778524, -0.47552827), (0.76942086, 0.58778524, -0.25), (0.95105654, 0.309017, 0), (0.9045085, 0.309017, 0.29389262), (0.76942086, 0.309017, 0.559017), (0.559017, 0.309017, 0.76942086), (0.29389262, 0.309017, 0.9045085), (5.8235414e-17, 0.309017, 0.95105654), (-0.29389262, 0.309017, 0.9045085), (-0.559017, 0.309017, 0.76942086), (-0.76942086, 0.309017, 0.559017), (-0.9045085, 0.309017, 0.29389262), (-0.95105654, 0.309017, 1.1647083e-16), (-0.9045085, 0.309017, -0.29389262), (-0.76942086, 0.309017, -0.559017), (-0.559017, 0.309017, -0.76942086), (-0.29389262, 0.309017, -0.9045085), (-1.7470625e-16, 0.309017, -0.95105654), (0.29389262, 0.309017, -0.9045085), (0.559017, 0.309017, -0.76942086), (0.76942086, 0.309017, -0.559017), (0.9045085, 0.309017, -0.29389262), (1, 6.123234e-17, 0), (0.95105654, 6.123234e-17, 0.309017), (0.809017, 6.123234e-17, 0.58778524), (0.58778524, 6.123234e-17, 0.809017), (0.309017, 6.123234e-17, 0.95105654), (6.123234e-17, 6.123234e-17, 1), (-0.309017, 6.123234e-17, 0.95105654), (-0.58778524, 6.123234e-17, 0.809017), (-0.809017, 6.123234e-17, 0.58778524), (-0.95105654, 6.123234e-17, 0.309017), (-1, 6.123234e-17, 1.2246469e-16), (-0.95105654, 6.123234e-17, -0.309017), (-0.809017, 6.123234e-17, -0.58778524), (-0.58778524, 6.123234e-17, -0.809017), (-0.309017, 6.123234e-17, -0.95105654), (-1.8369701e-16, 6.123234e-17, -1), (0.309017, 6.123234e-17, -0.95105654), (0.58778524, 6.123234e-17, -0.809017), (0.809017, 6.123234e-17, -0.58778524), (0.95105654, 6.123234e-17, -0.309017), (0.95105654, -0.309017, 0), (0.9045085, -0.309017, 0.29389262), (0.76942086, -0.309017, 0.559017), (0.559017, -0.309017, 0.76942086), (0.29389262, -0.309017, 0.9045085), (5.8235414e-17, -0.309017, 0.95105654), (-0.29389262, -0.309017, 0.9045085), (-0.559017, -0.309017, 0.76942086), (-0.76942086, -0.309017, 0.559017), (-0.9045085, -0.309017, 0.29389262), (-0.95105654, -0.309017, 1.1647083e-16), (-0.9045085, -0.309017, -0.29389262), (-0.76942086, -0.309017, -0.559017), (-0.559017, -0.309017, -0.76942086), (-0.29389262, -0.309017, -0.9045085), (-1.7470625e-16, -0.309017, -0.95105654), (0.29389262, -0.309017, -0.9045085), (0.559017, -0.309017, -0.76942086), (0.76942086, -0.309017, -0.559017), (0.9045085, -0.309017, -0.29389262), (0.809017, -0.58778524, 0), (0.76942086, -0.58778524, 0.25), (0.6545085, -0.58778524, 0.47552827), (0.47552827, -0.58778524, 0.6545085), (0.25, -0.58778524, 0.76942086), (4.9538004e-17, -0.58778524, 0.809017), (-0.25, -0.58778524, 0.76942086), (-0.47552827, -0.58778524, 0.6545085), (-0.6545085, -0.58778524, 0.47552827), (-0.76942086, -0.58778524, 0.25), (-0.809017, -0.58778524, 9.907601e-17), (-0.76942086, -0.58778524, -0.25), (-0.6545085, -0.58778524, -0.47552827), (-0.47552827, -0.58778524, -0.6545085), (-0.25, -0.58778524, -0.76942086), (-1.4861401e-16, -0.58778524, -0.809017), (0.25, -0.58778524, -0.76942086), (0.47552827, -0.58778524, -0.6545085), (0.6545085, -0.58778524, -0.47552827), (0.76942086, -0.58778524, -0.25), (0.58778524, -0.809017, 0), (0.559017, -0.809017, 0.18163563), (0.47552827, -0.809017, 0.3454915), (0.3454915, -0.809017, 0.47552827), (0.18163563, -0.809017, 0.559017), (3.5991466e-17, -0.809017, 0.58778524), (-0.18163563, -0.809017, 0.559017), (-0.3454915, -0.809017, 0.47552827), (-0.47552827, -0.809017, 0.3454915), (-0.559017, -0.809017, 0.18163563), (-0.58778524, -0.809017, 7.198293e-17), (-0.559017, -0.809017, -0.18163563), (-0.47552827, -0.809017, -0.3454915), (-0.3454915, -0.809017, -0.47552827), (-0.18163563, -0.809017, -0.559017), (-1.079744e-16, -0.809017, -0.58778524), (0.18163563, -0.809017, -0.559017), (0.3454915, -0.809017, -0.47552827), (0.47552827, -0.809017, -0.3454915), (0.559017, -0.809017, -0.18163563), (0.309017, -0.95105654, 0), (0.29389262, -0.95105654, 0.095491506), (0.25, -0.95105654, 0.18163563), (0.18163563, -0.95105654, 0.25), (0.095491506, -0.95105654, 0.29389262), (1.8921834e-17, -0.95105654, 0.309017), (-0.095491506, -0.95105654, 0.29389262), (-0.18163563, -0.95105654, 0.25), (-0.25, -0.95105654, 0.18163563), (-0.29389262, -0.95105654, 0.095491506), (-0.309017, -0.95105654, 3.784367e-17), (-0.29389262, -0.95105654, -0.095491506), (-0.25, -0.95105654, -0.18163563), (-0.18163563, -0.95105654, -0.25), (-0.095491506, -0.95105654, -0.29389262), (-5.67655e-17, -0.95105654, -0.309017), (0.095491506, -0.95105654, -0.29389262), (0.18163563, -0.95105654, -0.25), (0.25, -0.95105654, -0.18163563), (0.29389262, -0.95105654, -0.095491506), (1.2246469e-16, -1, 0), (1.1647083e-16, -1, 3.784367e-17), (9.907601e-17, -1, 7.198293e-17), (7.198293e-17, -1, 9.907601e-17), (3.784367e-17, -1, 1.1647083e-16), (7.498799e-33, -1, 1.2246469e-16), (-3.784367e-17, -1, 1.1647083e-16), (-7.198293e-17, -1, 9.907601e-17), (-9.907601e-17, -1, 7.198293e-17), (-1.1647083e-16, -1, 3.784367e-17), (-1.2246469e-16, -1, 1.4997598e-32), (-1.1647083e-16, -1, -3.784367e-17), (-9.907601e-17, -1, -7.198293e-17), (-7.198293e-17, -1, -9.907601e-17), (-3.784367e-17, -1, -1.1647083e-16), (-2.2496396e-32, -1, -1.2246469e-16), (3.784367e-17, -1, -1.1647083e-16), (7.198293e-17, -1, -9.907601e-17), (9.907601e-17, -1, -7.198293e-17), (1.1647083e-16, -1, -3.784367e-17)] (
                interpolation = "vertex"
            )
            point3f[] points = [(0, 0.5, 0), (0, 0.5, 0), (0, 0.5, 0), (0, 0.5, 0), (0, 0.5, 0), (0, 0.5, 0), (-0, 0.5, 0), (-0, 0.5, 0), (-0, 0.5, 0), (-0, 0.5, 0), (-0, 0.5, 0), (-0, 0.5, -0), (-0, 0.5, -0), (-0, 0.5, -0), (-0, 0.5, -0), (-0, 0.5, -0), (0, 0.5, -0), (0, 0.5, -0), (0, 0.5, -0), (0, 0.5, -0), (0.1545085, 0.47552827, 0), (0.14694631, 0.47552827, 0.047745753), (0.125, 0.47552827, 0.09081782), (0.09081782, 0.47552827, 0.125), (0.047745753, 0.47552827, 0.14694631), (9.460917e-18, 0.47552827, 0.1545085), (-0.047745753, 0.47552827, 0.14694631), (-0.09081782, 0.47552827, 0.125), (-0.125, 0.47552827, 0.09081782), (-0.14694631, 0.47552827, 0.047745753), (-0.1545085, 0.47552827, 1.8921834e-17), (-0.14694631, 0.47552827, -0.047745753), (-0.125, 0.47552827, -0.09081782), (-0.09081782, 0.47552827, -0.125), (-0.047745753, 0.47552827, -0.14694631), (-2.838275e-17, 0.47552827, -0.1545085), (0.047745753, 0.47552827, -0.14694631), (0.09081782, 0.47552827, -0.125), (0.125, 0.47552827, -0.09081782), (0.14694631, 0.47552827, -0.047745753), (0.29389262, 0.4045085, 0), (0.2795085, 0.4045085, 0.09081782), (0.23776414, 0.4045085, 0.17274575), (0.17274575, 0.4045085, 0.23776414), (0.09081782, 0.4045085, 0.2795085), (1.7995733e-17, 0.4045085, 0.29389262), (-0.09081782, 0.4045085, 0.2795085), (-0.17274575, 0.4045085, 0.23776414), (-0.23776414, 0.4045085, 0.17274575), (-0.2795085, 0.4045085, 0.09081782), (-0.29389262, 0.4045085, 3.5991466e-17), (-0.2795085, 0.4045085, -0.09081782), (-0.23776414, 0.4045085, -0.17274575), (-0.17274575, 0.4045085, -0.23776414), (-0.09081782, 0.4045085, -0.2795085), (-5.39872e-17, 0.4045085, -0.29389262), (0.09081782, 0.4045085, -0.2795085), (0.17274575, 0.4045085, -0.23776414), (0.23776414, 0.4045085, -0.17274575), (0.2795085, 0.4045085, -0.09081782), (0.4045085, 0.29389262, 0), (0.38471043, 0.29389262, 0.125), (0.32725424, 0.29389262, 0.23776414), (0.23776414, 0.29389262, 0.32725424), (0.125, 0.29389262, 0.38471043), (2.4769002e-17, 0.29389262, 0.4045085), (-0.125, 0.29389262, 0.38471043), (-0.23776414, 0.29389262, 0.32725424), (-0.32725424, 0.29389262, 0.23776414), (-0.38471043, 0.29389262, 0.125), (-0.4045085, 0.29389262, 4.9538004e-17), (-0.38471043, 0.29389262, -0.125), (-0.32725424, 0.29389262, -0.23776414), (-0.23776414, 0.29389262, -0.32725424), (-0.125, 0.29389262, -0.38471043), (-7.4307004e-17, 0.29389262, -0.4045085), (0.125, 0.29389262, -0.38471043), (0.23776414, 0.29389262, -0.32725424), (0.32725424, 0.29389262, -0.23776414), (0.38471043, 0.29389262, -0.125), (0.47552827, 0.1545085, 0), (0.45225424, 0.1545085, 0.14694631), (0.38471043, 0.1545085, 0.2795085), (0.2795085, 0.1545085, 0.38471043), (0.14694631, 0.1545085, 0.45225424), (2.9117707e-17, 0.1545085, 0.47552827), (-0.14694631, 0.1545085, 0.45225424), (-0.2795085, 0.1545085, 0.38471043), (-0.38471043, 0.1545085, 0.2795085), (-0.45225424, 0.1545085, 0.14694631), (-0.47552827, 0.1545085, 5.8235414e-17), (-0.45225424, 0.1545085, -0.14694631), (-0.38471043, 0.1545085, -0.2795085), (-0.2795085, 0.1545085, -0.38471043), (-0.14694631, 0.1545085, -0.45225424), (-8.7353125e-17, 0.1545085, -0.47552827), (0.14694631, 0.1545085, -0.45225424), (0.2795085, 0.1545085, -0.38471043), (0.38471043, 0.1545085, -0.2795085), (0.45225424, 0.1545085, -0.14694631), (0.5, 3.061617e-17, 0), (0.47552827, 3.061617e-17, 0.1545085), (0.4045085, 3.061617e-17, 0.29389262), (0.29389262, 3.061617e-17, 0.4045085), (0.1545085, 3.061617e-17, 0.47552827), (3.061617e-17, 3.061617e-17, 0.5), (-0.1545085, 3.061617e-17, 0.47552827), (-0.29389262, 3.061617e-17, 0.4045085), (-0.4045085, 3.061617e-17, 0.29389262), (-0.47552827, 3.061617e-17, 0.1545085), (-0.5, 3.061617e-17, 6.123234e-17), (-0.47552827, 3.061617e-17, -0.1545085), (-0.4045085, 3.061617e-17, -0.29389262), (-0.29389262, 3.061617e-17, -0.4045085), (-0.1545085, 3.061617e-17, -0.47552827), (-9.184851e-17, 3.061617e-17, -0.5), (0.1545085, 3.061617e-17, -0.47552827), (0.29389262, 3.061617e-17, -0.4045085), (0.4045085, 3.061617e-17, -0.29389262), (0.47552827, 3.061617e-17, -0.1545085), (0.47552827, -0.1545085, 0), (0.45225424, -0.1545085, 0.14694631), (0.38471043, -0.1545085, 0.2795085), (0.2795085, -0.1545085, 0.38471043), (0.14694631, -0.1545085, 0.45225424), (2.9117707e-17, -0.1545085, 0.47552827), (-0.14694631, -0.1545085, 0.45225424), (-0.2795085, -0.1545085, 0.38471043), (-0.38471043, -0.1545085, 0.2795085), (-0.45225424, -0.1545085, 0.14694631), (-0.47552827, -0.1545085, 5.8235414e-17), (-0.45225424, -0.1545085, -0.14694631), (-0.38471043, -0.1545085, -0.2795085), (-0.2795085, -0.1545085, -0.38471043), (-0.14694631, -0.1545085, -0.45225424), (-8.7353125e-17, -0.1545085, -0.47552827), (0.14694631, -0.1545085, -0.45225424), (0.2795085, -0.1545085, -0.38471043), (0.38471043, -0.1545085, -0.2795085), (0.45225424, -0.1545085, -0.14694631), (0.4045085, -0.29389262, 0), (0.38471043, -0.29389262, 0.125), (0.32725424, -0.29389262, 0.23776414), (0.23776414, -0.29389262, 0.32725424), (0.125, -0.29389262, 0.38471043), (2.4769002e-17, -0.29389262, 0.4045085), (-0.125, -0.29389262, 0.38471043), (-0.23776414, -0.29389262, 0.32725424), (-0.32725424, -0.29389262, 0.23776414), (-0.38471043, -0.29389262, 0.125), (-0.4045085, -0.29389262, 4.9538004e-17), (-0.38471043, -0.29389262, -0.125), (-0.32725424, -0.29389262, -0.23776414), (-0.23776414, -0.29389262, -0.32725424), (-0.125, -0.29389262, -0.38471043), (-7.4307004e-17, -0.29389262, -0.4045085), (0.125, -0.29389262, -0.38471043), (0.23776414, -0.29389262, -0.32725424), (0.32725424, -0.29389262, -0.23776414), (0.38471043, -0.29389262, -0.125), (0.29389262, -0.4045085, 0), (0.2795085, -0.4045085, 0.09081782), (0.23776414, -0.4045085, 0.17274575), (0.17274575, -0.4045085, 0.23776414), (0.09081782, -0.4045085, 0.2795085), (1.7995733e-17, -0.4045085, 0.29389262), (-0.09081782, -0.4045085, 0.2795085), (-0.17274575, -0.4045085, 0.23776414), (-0.23776414, -0.4045085, 0.17274575), (-0.2795085, -0.4045085, 0.09081782), (-0.29389262, -0.4045085, 3.5991466e-17), (-0.2795085, -0.4045085, -0.09081782), (-0.23776414, -0.4045085, -0.17274575), (-0.17274575, -0.4045085, -0.23776414), (-0.09081782, -0.4045085, -0.2795085), (-5.39872e-17, -0.4045085, -0.29389262), (0.09081782, -0.4045085, -0.2795085), (0.17274575, -0.4045085, -0.23776414), (0.23776414, -0.4045085, -0.17274575), (0.2795085, -0.4045085, -0.09081782), (0.1545085, -0.47552827, 0), (0.14694631, -0.47552827, 0.047745753), (0.125, -0.47552827, 0.09081782), (0.09081782, -0.47552827, 0.125), (0.047745753, -0.47552827, 0.14694631), (9.460917e-18, -0.47552827, 0.1545085), (-0.047745753, -0.47552827, 0.14694631), (-0.09081782, -0.47552827, 0.125), (-0.125, -0.47552827, 0.09081782), (-0.14694631, -0.47552827, 0.047745753), (-0.1545085, -0.47552827, 1.8921834e-17), (-0.14694631, -0.47552827, -0.047745753), (-0.125, -0.47552827, -0.09081782), (-0.09081782, -0.47552827, -0.125), (-0.047745753, -0.47552827, -0.14694631), (-2.838275e-17, -0.47552827, -0.1545085), (0.047745753, -0.47552827, -0.14694631), (0.09081782, -0.47552827, -0.125), (0.125, -0.47552827, -0.09081782), (0.14694631, -0.47552827, -0.047745753), (6.123234e-17, -0.5, 0), (5.8235414e-17, -0.5, 1.8921834e-17), (4.9538004e-17, -0.5, 3.5991466e-17), (3.5991466e-17, -0.5, 4.9538004e-17), (1.8921834e-17, -0.5, 5.8235414e-17), (3.7493994e-33, -0.5, 6.123234e-17), (-1.8921834e-17, -0.5, 5.8235414e-17), (-3.5991466e-17, -0.5, 4.9538004e-17), (-4.9538004e-17, -0.5, 3.5991466e-17), (-5.8235414e-17, -0.5, 1.8921834e-17), (-6.123234e-17, -0.5, 7.498799e-33), (-5.8235414e-17, -0.5, -1.8921834e-17), (-4.9538004e-17, -0.5, -3.5991466e-17), (-3.5991466e-17, -0.5, -4.9538004e-17), (-1.8921834e-17, -0.5, -5.8235414e-17), (-1.1248198e-32, -0.5, -6.123234e-17), (1.8921834e-17, -0.5, -5.8235414e-17), (3.5991466e-17, -0.5, -4.9538004e-17), (4.9538004e-17, -0.5, -3.5991466e-17), (5.8235414e-17, -0.5, -1.8921834e-17)]
            uniform token subdivisionScheme = "none"
        }
    }
}

